<svg id="Layer_1" data-name="Layer 1" xmlns="http://www.w3.org/2000/svg" viewBox="0 0 728.89 730.54"><defs><style>.cls-1{fill:#9da5b0;}.cls-2{fill:#4d4d4d;}.cls-3{fill:#333;}.cls-4{fill:red;}</style></defs><title>favicon</title><path class="cls-1" d="M208.75,336.72l137.9,181A76,76,0,0,0,453.11,532.1L714.52,332.94A76,76,0,0,0,728.9,226.48L591,45.48Z" transform="translate(-15.55 -34.73)"/><rect class="cls-2" x="-30.84" y="242.17" width="714.27" height="87.99" transform="translate(-122.23 221.56) rotate(-37.3)"/><rect class="cls-3" x="49.95" y="431.71" width="42.31" height="97.81" transform="translate(-292.28 106.67) rotate(-37.3)"/><rect class="cls-3" x="90.6" y="400.74" width="42.31" height="97.81" transform="matrix(0.8, -0.61, 0.61, 0.8, -265.19, 124.97)"/><rect class="cls-3" x="131.25" y="369.77" width="42.31" height="97.81" transform="translate(-238.11 143.27) rotate(-37.3)"/><rect class="cls-3" x="171.9" y="338.8" width="42.31" height="97.81" transform="translate(-211.02 161.57) rotate(-37.3)"/><path class="cls-4" d="M282.51,513s6.09-79.16,50.24-62.41S405.82,475,459.1,449.09l53.28-25.87s121.78-73.07,130.91-74.6,41.1-22.83,48.72-3-18.27,67-97.43,118.74S445.4,639.38,446.92,648.51a114,114,0,0,1,1.52,16.75s32,56.55,0,25.87c-35.87-34.4-67,33.49-65.46,4.57s44.15-44.14,13.7-76.11,10.66,1.52-42.62-33.49l-53.28-35s16.75-50.24,7.61-54.81l-9.13-4.56Z" transform="translate(-15.55 -34.73)"/><path class="cls-4" d="M449.85,725.78c0,29.67-10.69,39.49-23.88,39.49s-23.88-9.82-23.88-39.49S426,672.05,426,672.05,449.85,696.1,449.85,725.78Z" transform="translate(-15.55 -34.73)"/></svg>